<svg width="20" height="19" viewBox="0 0 20 19" fill="none" xmlns="http://www.w3.org/2000/svg">
<path d="M6.69531 6.77148C8.35645 6.77148 9.73633 5.40039 9.73633 3.73926C9.73633 2.08691 8.35645 0.698242 6.69531 0.698242C5.04297 0.698242 3.6543 2.08691 3.6543 3.73926C3.6543 5.40039 5.04297 6.77148 6.69531 6.77148ZM13.2959 6.77148C14.957 6.77148 16.3369 5.40039 16.3369 3.73926C16.3369 2.08691 14.957 0.698242 13.2959 0.698242C11.6436 0.698242 10.2549 2.08691 10.2549 3.73926C10.2549 5.40039 11.6348 6.77148 13.2959 6.77148ZM6.69531 5.14551C5.93066 5.14551 5.28906 4.49512 5.28906 3.73926C5.28906 2.97461 5.93066 2.33301 6.69531 2.33301C7.45996 2.33301 8.11035 2.9834 8.11035 3.73926C8.11035 4.50391 7.45996 5.14551 6.69531 5.14551ZM13.2959 5.14551C12.5312 5.14551 11.8896 4.50391 11.8896 3.73926C11.8896 2.9834 12.5312 2.33301 13.2959 2.33301C14.0605 2.33301 14.7021 2.97461 14.7021 3.73926C14.7021 4.50391 14.0605 5.14551 13.2959 5.14551ZM3.39941 12.6865C5.05176 12.6865 6.44043 11.3066 6.44043 9.6543C6.44043 7.99316 5.05176 6.61328 3.39941 6.61328C1.73828 6.61328 0.358398 7.99316 0.358398 9.6543C0.358398 11.3066 1.73828 12.6865 3.39941 12.6865ZM10 12.6865C11.6523 12.6865 13.0322 11.3066 13.0322 9.6543C13.0322 7.99316 11.6523 6.61328 10 6.61328C8.33887 6.61328 6.95898 7.99316 6.95898 9.6543C6.95898 11.3066 8.33887 12.6865 10 12.6865ZM16.5918 12.6865C18.2529 12.6865 19.6328 11.3066 19.6328 9.6543C19.6328 7.99316 18.2529 6.61328 16.5918 6.61328C14.9395 6.61328 13.5596 7.99316 13.5596 9.6543C13.5596 11.3066 14.9395 12.6865 16.5918 12.6865ZM3.39941 11.0605C2.63477 11.0605 1.98438 10.4189 1.98438 9.6543C1.98438 8.88965 2.63477 8.24805 3.39941 8.24805C4.16406 8.24805 4.80566 8.88965 4.80566 9.6543C4.80566 10.4189 4.16406 11.0605 3.39941 11.0605ZM10 11.0605C9.23535 11.0605 8.58496 10.4189 8.58496 9.6543C8.58496 8.88965 9.23535 8.24805 10 8.24805C10.7559 8.24805 11.4062 8.88965 11.4062 9.6543C11.4062 10.4189 10.7559 11.0605 10 11.0605ZM16.5918 11.0605C15.8359 11.0605 15.1855 10.4189 15.1855 9.6543C15.1855 8.88965 15.8359 8.24805 16.5918 8.24805C17.3564 8.24805 18.0068 8.88965 18.0068 9.6543C18.0068 10.4189 17.3564 11.0605 16.5918 11.0605ZM6.69531 18.6016C8.35645 18.6016 9.73633 17.2129 9.73633 15.5605C9.73633 13.9082 8.35645 12.5283 6.69531 12.5283C5.03418 12.5283 3.6543 13.9082 3.6543 15.5605C3.6543 17.2217 5.04297 18.6016 6.69531 18.6016ZM13.2959 18.6016C14.957 18.6016 16.3369 17.2217 16.3369 15.5605C16.3369 13.9082 14.957 12.5283 13.2959 12.5283C11.6348 12.5283 10.2549 13.9082 10.2549 15.5605C10.2549 17.2217 11.6436 18.6016 13.2959 18.6016ZM6.69531 16.9756C5.93066 16.9756 5.28906 16.3252 5.28906 15.5605C5.28906 14.8047 5.93066 14.1631 6.69531 14.1631C7.45996 14.1631 8.11035 14.8047 8.11035 15.5605C8.11035 16.3252 7.45996 16.9756 6.69531 16.9756ZM13.2959 16.9756C12.5312 16.9756 11.8896 16.3252 11.8896 15.5605C11.8896 14.8047 12.5312 14.1631 13.2959 14.1631C14.0605 14.1631 14.7021 14.8047 14.7021 15.5605C14.7021 16.3252 14.0605 16.9756 13.2959 16.9756Z" fill="#1C1C1E"/>
</svg>
